HIERARCHY
ROOT root
{
  OFFSET 0 95.9893 0
  CHANNELS 6 Xposition Yposition Zposition Zrotation Xrotation Yrotation
  JOINT torso_1
  {
    OFFSET 0 5.22546 -1.18466
    CHANNELS 6 Xposition Yposition Zposition Zrotation Xrotation Yrotation
    JOINT torso_2
    {
      OFFSET 0 5.77894 1.10239
      CHANNELS 6 Xposition Yposition Zposition Zrotation Xrotation Yrotation
      JOINT torso_3
      {
        OFFSET -1.0557e-17 6.16289 0.118334
        CHANNELS 6 Xposition Yposition Zposition Zrotation Xrotation Yrotation
        JOINT torso_4
        {
          OFFSET -1.13649e-17 6.69386 -0.456341
          CHANNELS 6 Xposition Yposition Zposition Zrotation Xrotation Yrotation
          JOINT torso_5
          {
            OFFSET -2.02997e-17 7.82529 -1.54945
            CHANNELS 6 Xposition Yposition Zposition Zrotation Xrotation Yrotation
            JOINT torso_6
            {
              OFFSET -2.60628e-17 9.77186 -0.940923
              CHANNELS 6 Xposition Yposition Zposition Zrotation Xrotation Yrotation
              JOINT torso_7
              {
                OFFSET -2.98794e-17 10.8563 1.62248
                CHANNELS 6 Xposition Yposition Zposition Zrotation Xrotation Yrotation
                JOINT neck_1
                {
                  OFFSET -1.32927e-17 4.92478 0.736013
                  CHANNELS 6 Xposition Yposition Zposition Zrotation Xrotation Yrotation
                  JOINT neck_2
                  {
                    OFFSET -1.86396e-17 4.96043 0.433981
                    CHANNELS 6 Xposition Yposition Zposition Zrotation Xrotation Yrotation
                    JOINT head
                    {
                      OFFSET -2.06766e-17 4.97002 0.787173
                      CHANNELS 6 Xposition Yposition Zposition Zrotation Xrotation Yrotation
                      End Site
                      {
                        OFFSET 0 0.1 0
                      }
                    }
                  }
                }
                JOINT l_shoulder
                {
                  OFFSET 1.26863 -7.82717 7.75148
                  CHANNELS 6 Xposition Yposition Zposition Zrotation Xrotation Yrotation
                  JOINT l_up_arm
                  {
                    OFFSET 13.3291 3.34342 -3.36319
                    CHANNELS 6 Xposition Yposition Zposition Zrotation Xrotation Yrotation
                    JOINT l_low_arm
                    {
                      OFFSET 30.0522 0.0615366 0.141
                      CHANNELS 6 Xposition Yposition Zposition Zrotation Xrotation Yrotation
                      JOINT l_hand
                      {
                        OFFSET 24.9344 0.0510561 0.116988
                        CHANNELS 6 Xposition Yposition Zposition Zrotation Xrotation Yrotation
                        End Site
                        {
                          OFFSET 0.1 0 0
                        }
                      }
                    }
                  }
                }
                JOINT r_shoulder
                {
                  OFFSET -1.26863 -7.82715 7.75138
                  CHANNELS 6 Xposition Yposition Zposition Zrotation Xrotation Yrotation
                  JOINT r_up_arm
                  {
                    OFFSET -13.3291 3.34342 -3.36319
                    CHANNELS 6 Xposition Yposition Zposition Zrotation Xrotation Yrotation
                    JOINT r_low_arm
                    {
                      OFFSET -30.0522 0.0615366 0.141
                      CHANNELS 6 Xposition Yposition Zposition Zrotation Xrotation Yrotation
                      JOINT r_hand
                      {
                        OFFSET -24.9344 0.0510559 0.116988
                        CHANNELS 6 Xposition Yposition Zposition Zrotation Xrotation Yrotation
                        End Site
                        {
                          OFFSET -0.1 0 0
                        }
                      }
                    }
                  }
                }
              }
            }
          }
        }
      }
    }
  }
  JOINT l_up_leg
  {
    OFFSET 9.50369 -4.32711 2.09145
    CHANNELS 6 Xposition Yposition Zposition Zrotation Xrotation Yrotation
    JOINT l_low_leg
    {
      OFFSET -0.876987 -39.8926 -0.674123
      CHANNELS 6 Xposition Yposition Zposition Zrotation Xrotation Yrotation
      JOINT l_foot
      {
        OFFSET -2.39345 -41.5694 -6.22357
        CHANNELS 6 Xposition Yposition Zposition Zrotation Xrotation Yrotation
        JOINT l_toes
        {
          OFFSET 0.801613 -10.1701 12.8571
          CHANNELS 6 Xposition Yposition Zposition Zrotation Xrotation Yrotation
          End Site
          {
            OFFSET 0 0 0.1
          }
        }
      }
    }
  }
  JOINT r_up_leg
  {
    OFFSET -9.50369 -4.32711 2.09145
    CHANNELS 6 Xposition Yposition Zposition Zrotation Xrotation Yrotation
    JOINT r_low_leg
    {
      OFFSET 0.876987 -39.8926 -0.674123
      CHANNELS 6 Xposition Yposition Zposition Zrotation Xrotation Yrotation
      JOINT r_foot
      {
        OFFSET 2.39345 -41.5694 -6.22357
        CHANNELS 6 Xposition Yposition Zposition Zrotation Xrotation Yrotation
        JOINT r_toes
        {
          OFFSET -0.801613 -10.1701 12.8571
          CHANNELS 6 Xposition Yposition Zposition Zrotation Xrotation Yrotation
          End Site
          {
            OFFSET 0 0 0.1
          }
        }
      }
    }
  }
}
MOTION
Frames: 4
Frame Time: 0.020000
0 95.9893 0 -0 0 -0 0 5.22546 -1.18466 -0 0 -0 0 5.77894 1.10239 -0 0 -0 -1.0557e-17 6.16289 0.118334 -0 0 -0 -1.13649e-17 6.69386 -0.456341 -0 0 -0 -2.02997e-17 7.82529 -1.54945 -0 0 -0 -2.60628e-17 9.77186 -0.940923 -0 0 -0 -2.98794e-17 10.8563 1.62248 -0 0 -0 -1.32927e-17 4.92478 0.736013 -0 0 -0 -1.86396e-17 4.96043 0.433981 -0 0 -0 -2.06766e-17 4.97002 0.787173 -0 0 -0 1.26863 -7.82717 7.75148 -0 0 -0 13.3291 3.34342 -3.36319 -0 0 -0 30.0522 0.0615366 0.141 -0 0 -0 24.9344 0.0510561 0.116988 -0 0 -0 -1.26863 -7.82715 7.75138 -0 0 -0 -13.3291 3.34342 -3.36319 -0 0 -0 -30.0522 0.0615366 0.141 -0 0 -0 -24.9344 0.0510559 0.116988 -0 0 -0 9.50369 -4.32711 2.09145 -0 0 -0 -0.876987 -39.8926 -0.674123 -0 0 -0 -2.39345 -41.5694 -6.22357 -0 0 -0 0.801613 -10.1701 12.8571 -0 0 -0 -9.50369 -4.32711 2.09145 -0 0 -0 0.876987 -39.8926 -0.674123 -0 0 -0 2.39345 -41.5694 -6.22357 -0 0 -0 -0.801613 -10.1701 12.8571 -0 0 -0 
-773.768 60.0231 158.794 41.6263 17.8429 105.129 0 5.22546 -1.18466 -0.878395 13.2812 0.268624 0 5.77894 1.10239 -0.708708 11.3172 -0.0502253 -1.0557e-17 6.16289 0.118334 -0.630985 9.61563 -0.0915663 -1.13649e-17 6.69386 -0.456341 -0.467057 6.67764 -0.136135 -2.02997e-17 7.82529 -1.54945 -0.198174 3.9326 -0.186353 -2.60628e-17 9.77186 -0.940923 0.113281 2.86388 -0.441988 -2.98794e-17 10.8563 1.62248 -0.115122 0.70393 0.131342 -1.32927e-17 4.92478 0.736013 -0.358753 4.23566 -1.9831 -1.86396e-17 4.96043 0.433981 -1.43989 -7.83119 -0.98878 -2.06766e-17 4.97002 0.787173 -0.681669 -7.12733 0.458063 1.26863 -7.82717 7.75148 7.29004 1.00351 -5.38797 13.3291 3.34342 -3.36319 -39.1961 67.304 -54.7733 30.0522 0.0615366 0.141 8.45153 -3.45457 -44.9967 24.9344 0.0510561 0.116988 27.6336 -86.7286 22.8219 -1.26863 -7.82715 7.75138 -3.71584 0.584467 7.80717 -13.3291 3.34342 -3.36319 61.7858 52.3567 25.893 -30.0522 0.0615366 0.141 -7.42746 -2.55167 38.4699 -24.9344 0.0510559 0.116988 6.23242 -68.052 5.1943 9.50369 -4.32711 2.09145 -2.54076 -33.0176 -0.0655354 -0.876987 -39.8926 -0.674123 -77.3254 75.5751 61.7958 -2.39345 -41.5694 -6.22357 7.71331 -5.96041 14.8428 0.801613 -10.1701 12.8571 1.86949e-16 -6.64807e-16 -2.00362e-16 -9.50369 -4.32711 2.09145 -11.4942 -32.7863 -7.22322 0.876987 -39.8926 -0.674123 80.2487 75.7264 -64.6155 2.39345 -41.5694 -6.22357 -12.0088 -6.02166 -14.4939 -0.801613 -10.1701 12.8571 -6.00124e-16 -3.85884e-16 -1.25795e-14 
-773.768 60.0232 158.794 41.6335 17.8399 105.131 0 5.22546 -1.18466 -0.877035 13.282 0.268573 0 5.77894 1.10239 -0.707603 11.318 -0.0501472 -1.0557e-17 6.16289 0.118334 -0.630126 9.61605 -0.0914913 -1.13649e-17 6.69386 -0.456341 -0.466427 6.67729 -0.136074 -2.02997e-17 7.82529 -1.54945 -0.19773 3.93185 -0.186416 -2.60628e-17 9.77186 -0.940923 0.113397 2.86265 -0.442317 -2.98794e-17 10.8563 1.62248 -0.11516 0.704056 0.131192 -1.32927e-17 4.92478 0.736013 -0.357739 4.24042 -1.97059 -1.86396e-17 4.96043 0.433981 -1.44124 -7.82788 -0.983198 -2.06766e-17 4.97002 0.787173 -0.688459 -7.12058 0.449441 1.26863 -7.82717 7.75148 7.29655 1.0028 -5.38512 13.3291 3.34342 -3.36319 -39.1978 67.3093 -54.7906 30.0522 0.0615366 0.141 8.45047 -3.45351 -44.9895 24.9344 0.0510561 0.116988 27.6925 -86.7226 22.8754 -1.26863 -7.82715 7.75138 -3.71958 0.584176 7.80508 -13.3291 3.34342 -3.36319 61.7957 52.3656 25.8893 -30.0522 0.0615366 0.141 -7.42919 -2.55303 38.4804 -24.9344 0.0510559 0.116988 6.22651 -68.0535 5.19048 9.50369 -4.32711 2.09145 -2.54538 -33.0154 -0.0796032 -0.876987 -39.8926 -0.674123 -77.3318 75.5755 61.802 -2.39345 -41.5694 -6.22357 7.72053 -5.95409 14.8427 0.801613 -10.1701 12.8571 4.42393e-16 -6.53771e-16 -2.08345e-16 -9.50369 -4.32711 2.09145 -11.4825 -32.7835 -7.20968 0.876987 -39.8926 -0.674123 80.2419 75.7261 -64.6089 2.39345 -41.5694 -6.22357 -12.0066 -6.01683 -14.4941 -0.801613 -10.1701 12.8571 -6.00124e-16 -3.85884e-16 -1.25795e-14 
-773.767 60.0226 158.794 41.6252 17.8428 105.127 0 5.22546 -1.18466 -0.88024 13.2798 0.269622 0 5.77894 1.10239 -0.710648 11.3163 -0.0494262 -1.0557e-17 6.16289 0.118334 -0.632829 9.61479 -0.090825 -1.13649e-17 6.69386 -0.456341 -0.46851 6.67598 -0.135433 -2.02997e-17 7.82529 -1.54945 -0.198886 3.93112 -0.185544 -2.60628e-17 9.77186 -0.940923 0.113414 2.86177 -0.441642 -2.98794e-17 10.8563 1.62248 -0.11519 0.704392 0.130921 -1.32927e-17 4.92478 0.736013 -0.357099 4.2439 -1.962 -1.86396e-17 4.96043 0.433981 -1.4403 -7.82472 -0.979418 -2.06766e-17 4.97002 0.787173 -0.689133 -7.12157 0.444975 1.26863 -7.82717 7.75148 7.30381 1.00163 -5.38151 13.3291 3.34342 -3.36319 -39.212 67.3109 -54.7855 30.0522 0.0615366 0.141 8.45047 -3.45352 -44.9895 24.9344 0.0510561 0.116988 27.5406 -86.7237 22.7152 -1.26863 -7.82715 7.75138 -3.72685 0.582357 7.79986 -13.3291 3.34342 -3.36319 61.8091 52.3815 25.8893 -30.0522 0.0615366 0.141 -7.43049 -2.55405 38.4883 -24.9344 0.0510559 0.116988 6.21668 -68.0595 5.18839 9.50369 -4.32711 2.09145 -2.56427 -33.0293 -0.0942401 -0.876987 -39.8926 -0.674123 -77.3374 75.5758 61.8074 -2.39345 -41.5694 -6.22357 7.73072 -5.93891 14.8432 0.801613 -10.1701 12.8571 1.15886e-16 -6.67877e-16 -1.98141e-16 -9.50369 -4.32711 2.09145 -11.4768 -32.8015 -7.19005 0.876987 -39.8926 -0.674123 80.2622 75.727 -64.6285 2.39345 -41.5694 -6.22357 -12.0081 -6.005 -14.4947 -0.801613 -10.1701 12.8571 -5.29061e-16 -3.88954e-16 -1.25817e-14 
